<?xml version="1.0" encoding="UTF-8" standalone="no"?>
<!-- Created with Inkscape (http://www.inkscape.org/) -->

<svg
   xmlns:dc="http://purl.org/dc/elements/1.1/"
   xmlns:cc="http://creativecommons.org/ns#"
   xmlns:rdf="http://www.w3.org/1999/02/22-rdf-syntax-ns#"
   xmlns:svg="http://www.w3.org/2000/svg"
   xmlns="http://www.w3.org/2000/svg"
   xmlns:xlink="http://www.w3.org/1999/xlink"
   xmlns:sodipodi="http://sodipodi.sourceforge.net/DTD/sodipodi-0.dtd"
   xmlns:inkscape="http://www.inkscape.org/namespaces/inkscape"
   width="128"
   height="128"
   id="svg2985"
   version="1.1"
   inkscape:version="0.48.3.1 r9886"
   inkscape:export-filename="C:\Users\Courtney\PhpstormProjects\tab-accordian\icons\128_widget_icon_tab-accordian.png"
   inkscape:export-xdpi="90"
   inkscape:export-ydpi="90"
   sodipodi:docname="128_widget_icon_tab-accordian.svg">
  <defs
     id="defs2987">
    <linearGradient
       inkscape:collect="always"
       id="linearGradient3931">
      <stop
         style="stop-color:#ffffff;stop-opacity:0.68281938"
         offset="0"
         id="stop3933" />
      <stop
         style="stop-color:#ffffff;stop-opacity:0"
         offset="1"
         id="stop3935" />
    </linearGradient>
    <linearGradient
       id="linearGradient3816">
      <stop
         style="stop-color:#d6d6d6;stop-opacity:1;"
         offset="0"
         id="stop3818" />
      <stop
         style="stop-color:#ffffff;stop-opacity:1;"
         offset="1"
         id="stop3820" />
    </linearGradient>
    <linearGradient
       id="linearGradient3781">
      <stop
         style="stop-color:#401500;stop-opacity:1;"
         offset="0"
         id="stop3783" />
      <stop
         id="stop4394"
         offset="0.5"
         style="stop-color:#973e00;stop-opacity:1;" />
      <stop
         style="stop-color:#ff8a01;stop-opacity:1;"
         offset="1"
         id="stop3785" />
    </linearGradient>
    <linearGradient
       inkscape:collect="always"
       xlink:href="#linearGradient3781"
       id="linearGradient3812"
       x1="1"
       y1="0.5"
       x2="63.5"
       y2="63.5"
       gradientUnits="userSpaceOnUse"
       gradientTransform="matrix(0.97896724,0,0,0.97896724,1.2184937,1.1633129)" />
    <linearGradient
       inkscape:collect="always"
       xlink:href="#linearGradient3781"
       id="linearGradient3032"
       gradientUnits="userSpaceOnUse"
       gradientTransform="matrix(0.97896724,0,0,0.97896724,1.2184937,1.1633129)"
       x1="1"
       y1="0.5"
       x2="63.5"
       y2="63.5" />
    <filter
       inkscape:collect="always"
       id="filter3867"
       color-interpolation-filters="sRGB">
      <feGaussianBlur
         inkscape:collect="always"
         stdDeviation="1.5048201"
         id="feGaussianBlur3869" />
    </filter>
    <linearGradient
       inkscape:collect="always"
       xlink:href="#linearGradient3816"
       id="linearGradient3885"
       x1="0"
       y1="0"
       x2="0"
       y2="64"
       gradientUnits="userSpaceOnUse" />
    <linearGradient
       inkscape:collect="always"
       xlink:href="#linearGradient3816"
       id="linearGradient3897"
       x1="0"
       y1="0"
       x2="0"
       y2="64"
       gradientUnits="userSpaceOnUse"
       gradientTransform="matrix(2,0,0,2,0,-64)" />
    <linearGradient
       inkscape:collect="always"
       xlink:href="#linearGradient3781"
       id="linearGradient3907"
       gradientUnits="userSpaceOnUse"
       x1="2"
       y1="1.5"
       x2="63.5"
       y2="63.5"
       gradientTransform="matrix(1.9333333,0,0,1.9333333,2.133333,-61.866667)" />
    <filter
       inkscape:collect="always"
       id="filter3919"
       color-interpolation-filters="sRGB">
      <feGaussianBlur
         inkscape:collect="always"
         stdDeviation="2.32"
         id="feGaussianBlur3921" />
    </filter>
    <mask
       maskUnits="userSpaceOnUse"
       id="mask3924">
      <rect
         style="color:#000000;fill:#ff8080;fill-opacity:1;fill-rule:nonzero;stroke:none;stroke-width:3;marker:none;visibility:visible;display:inline;overflow:visible;enable-background:accumulate"
         id="rect3926"
         width="58"
         height="58"
         x="3"
         y="3"
         rx="5"
         ry="5" />
    </mask>
    <linearGradient
       inkscape:collect="always"
       xlink:href="#linearGradient3931"
       id="linearGradient3937"
       x1="32.5"
       y1="31.5"
       x2="32.5"
       y2="1.5"
       gradientUnits="userSpaceOnUse" />
    <clipPath
       clipPathUnits="userSpaceOnUse"
       id="clipPath3085">
      <path
         inkscape:connector-curvature="0"
         id="path3087"
         d="m -7.5260409,0 -3e-7,0.5 -2.2656248,0 0,0.5 -1.510416,0 -10e-7,0.5 -0.755208,0 0,0.5 -0.755208,0 0,0.5 -0.755209,0 0,0.5 -0.755208,0 0,1 -0.755208,0 0,1.5 -0.755208,0 0,53.5 1.510416,0 0,2 1.510417,0 0,1 1.510417,0 0,1 1.5104163,0 0,1 83.0729157,0 0,-1 3.020834,0 0,-1 1.510416,0 0,-1 1.510417,0 0,-2 1.510417,0 0,-54 -1.510417,0 0,-2 -1.510417,0 0,-1 -1.510416,0 0,-1 -3.020834,0 0,-1 z"
         style="color:#000000;fill:#ffaaaa;fill-opacity:1;fill-rule:nonzero;stroke:none;stroke-width:6;marker:none;visibility:visible;display:inline;overflow:visible;enable-background:accumulate"
         sodipodi:nodetypes="ccccccccccccccccccccccccccccccccccccccccccccc" />
    </clipPath>
  </defs>
  <sodipodi:namedview
     id="base"
     pagecolor="#ffffff"
     bordercolor="#666666"
     borderopacity="1.0"
     inkscape:pageopacity="0"
     inkscape:pageshadow="2"
     inkscape:zoom="3.4403456"
     inkscape:cx="60.906424"
     inkscape:cy="86.671682"
     inkscape:current-layer="layer6"
     showgrid="true"
     inkscape:document-units="px"
     inkscape:grid-bbox="true"
     inkscape:window-width="1920"
     inkscape:window-height="1018"
     inkscape:window-x="1042"
     inkscape:window-y="414"
     inkscape:window-maximized="1">
    <inkscape:grid
       type="xygrid"
       id="grid2993"
       empspacing="5"
       visible="true"
       enabled="true"
       snapvisiblegridlinesonly="true" />
    <inkscape:grid
       type="xygrid"
       id="grid2995"
       empspacing="5"
       visible="true"
       enabled="true"
       snapvisiblegridlinesonly="true"
       dotted="true"
       originx="2.5px"
       originy="2.5px"
       color="#ff0000"
       opacity="0.1254902"
       empcolor="#ff0000"
       empopacity="0.25098039" />
  </sodipodi:namedview>
  <metadata
     id="metadata2990">
    <rdf:RDF>
      <cc:Work
         rdf:about="">
        <dc:format>image/svg+xml</dc:format>
        <dc:type
           rdf:resource="http://purl.org/dc/dcmitype/StillImage" />
        <dc:title></dc:title>
      </cc:Work>
    </rdf:RDF>
  </metadata>
  <g
     inkscape:groupmode="layer"
     id="layer5"
     inkscape:label="Frame"
     style="display:inline"
     transform="translate(0,64)">
    <path
       style="color:#000000;fill:url(#linearGradient3897);fill-opacity:1;fill-rule:nonzero;stroke:none;stroke-width:6;marker:none;visibility:visible;display:inline;overflow:visible;enable-background:accumulate"
       d="m 11,-64 0,1 -3,0 0,1 -2,0 0,1 -1,0 0,1 -1,0 0,0.988113 L 3,-59 2.9802379,-58 2,-58 l 0,2 -1,0 0,2 0,1 -1,0 0,106 1,0 0,3 1,0 0,2 1,0 0,1 1,0 0,1 1,0 0,1 1,0 0,1 2,0 0,1 3,0 0,1 106,0 0,-1 3,0 0,-1 2,0 0,-1 1,0 0,-1 1,0 0,-1 1,0 0,-1 1,0 0,-2 1,0 0,-3 1,0 0,-106 -1,0 0,-3 -1,0 0,-2 -1,0 0,-1 -1,0 0,-1 -1,0 0,-1 -1,0 0,-1 -2,0 0,-1 -3,0 0,-0.980206 z"
       id="path3919"
       inkscape:connector-curvature="0"
       sodipodi:nodetypes="cccccccccccccccccccccccccccccccccccccccccccccccccccccccccccccccccccccc" />
  </g>
  <g
     inkscape:groupmode="layer"
     id="layer2"
     inkscape:label="Background"
     style="display:inline"
     transform="translate(0,64)">
    <g
       inkscape:groupmode="layer"
       id="layer6"
       inkscape:label="Blue"
       style="display:inline">
      <rect
         style="color:#000000;fill:url(#linearGradient3907);fill-opacity:1;fill-rule:nonzero;stroke:none;stroke-width:3;marker:none;visibility:visible;display:inline;overflow:visible;enable-background:accumulate"
         id="rect2997"
         width="116"
         height="116"
         x="6"
         y="-58"
         rx="10"
         ry="10" />
      <path
         style="fill:none;stroke:#ffffff;stroke-width:5;stroke-linecap:butt;stroke-linejoin:miter;stroke-miterlimit:4;stroke-opacity:1;stroke-dasharray:none"
         d="M 37.5,41.5 19.707711,1.4673498 22.5,-3.5 77,-3.5 84.67487,1.393458 102.5,41.5 z"
         id="path4396"
         inkscape:connector-curvature="0"
         sodipodi:nodetypes="ccccccc" />
      <path
         style="fill:none;stroke:#ffffff;stroke-width:5;stroke-linecap:butt;stroke-linejoin:miter;stroke-miterlimit:4;stroke-opacity:1;stroke-dasharray:none"
         d="M 41.96088,-3.4260382 38.614773,-18.48352 42,-23.5 l 51,0 5.627826,5.075218 L 107.5,21.5 l -14.19542,0"
         id="path4398"
         inkscape:connector-curvature="0"
         sodipodi:nodetypes="ccccccc" />
      <path
         style="fill:none;stroke:#ffffff;stroke-width:5;stroke-linecap:butt;stroke-linejoin:miter;stroke-miterlimit:4;stroke-opacity:1;stroke-dasharray:none"
         d="m 57.5,-23.345876 0,-10.173397 5,-4.980727 45,0 5,5.126062 0,34.873938 -10.03936,0"
         id="path4400"
         inkscape:connector-curvature="0"
         sodipodi:nodetypes="ccccccc" />
    </g>
    <g
       inkscape:groupmode="layer"
       id="layer7"
       inkscape:label="Shadow#1"
       style="display:inline">
      <g
         style="display:inline"
         id="g3837"
         mask="url(#mask3924)"
         transform="matrix(2,0,0,2,0,-64)">
        <rect
           style="color:#000000;fill:none;stroke:#000000;stroke-width:3;stroke-opacity:1;marker:none;visibility:visible;display:inline;overflow:visible;filter:url(#filter3919);enable-background:accumulate"
           id="rect3055"
           width="58"
           height="58"
           x="3"
           y="3"
           rx="5"
           ry="5" />
      </g>
    </g>
  </g>
  <g
     id="layer1"
     inkscape:label="Lettering"
     inkscape:groupmode="layer"
     style="display:inline"
     transform="translate(0,64)">
    <g
       inkscape:groupmode="layer"
       id="layer3"
       inkscape:label="Shadow"
       style="display:inline" />
    <g
       inkscape:groupmode="layer"
       id="layer4"
       inkscape:label="Letters"
       style="display:inline" />
  </g>
  <g
     inkscape:groupmode="layer"
     id="layer8"
     inkscape:label="Shine"
     transform="translate(0,64)"
     style="display:inline"
     sodipodi:insensitive="true">
    <path
       sodipodi:type="arc"
       style="color:#000000;fill:url(#linearGradient3937);fill-opacity:1;fill-rule:nonzero;stroke:none;stroke-width:2;marker:none;visibility:visible;display:inline;overflow:visible;enable-background:accumulate"
       id="path3929"
       sodipodi:cx="32.5"
       sodipodi:cy="2.75"
       sodipodi:rx="72.5"
       sodipodi:ry="28.75"
       d="m 105,2.75 a 72.5,28.75 0 1 1 -145,0 72.5,28.75 0 1 1 145,0 z"
       transform="matrix(1.3241379,0,0,2,20.965516,-64)"
       clip-path="url(#clipPath3085)" />
  </g>
</svg>
